<mxfile host="app.diagrams.net" agent="Mozilla/5.0 (Windows NT 10.0; Win64; x64) AppleWebKit/537.36 (KHTML, like Gecko) Chrome/138.0.0.0 Safari/537.36" version="27.1.6">
  <diagram name="Page-1" id="g28cctmXPFu5TCm2er8c">
    <mxGraphModel dx="2626" dy="2663" grid="1" gridSize="10" guides="1" tooltips="1" connect="1" arrows="1" fold="1" page="1" pageScale="1" pageWidth="1200" pageHeight="1920" math="0" shadow="0">
      <root>
        <mxCell id="0" />
        <mxCell id="1" parent="0" />
        <mxCell id="431lKpLGKha_jWjGA7hC-1" value="Snowflake" style="rounded=0;whiteSpace=wrap;html=1;fillColor=#97D077;" vertex="1" parent="1">
          <mxGeometry x="-40" y="150" width="120" height="60" as="geometry" />
        </mxCell>
        <mxCell id="431lKpLGKha_jWjGA7hC-2" value="" style="endArrow=classic;html=1;rounded=0;exitX=1;exitY=0.5;exitDx=0;exitDy=0;" edge="1" parent="1" source="431lKpLGKha_jWjGA7hC-1" target="431lKpLGKha_jWjGA7hC-3">
          <mxGeometry width="50" height="50" relative="1" as="geometry">
            <mxPoint x="580" y="410" as="sourcePoint" />
            <mxPoint x="470" y="180" as="targetPoint" />
          </mxGeometry>
        </mxCell>
        <mxCell id="431lKpLGKha_jWjGA7hC-3" value="s3: raw-data bucket" style="rounded=1;whiteSpace=wrap;html=1;fillColor=#97D077;" vertex="1" parent="1">
          <mxGeometry x="410" y="150" width="120" height="60" as="geometry" />
        </mxCell>
        <mxCell id="431lKpLGKha_jWjGA7hC-4" value="lambda function - batch" style="rounded=0;whiteSpace=wrap;html=1;fillColor=#97D077;" vertex="1" parent="1">
          <mxGeometry x="160" y="130" width="90" height="40" as="geometry" />
        </mxCell>
        <mxCell id="431lKpLGKha_jWjGA7hC-6" value="lambda function - streaming data generator" style="rounded=0;whiteSpace=wrap;html=1;fillColor=#97D077;" vertex="1" parent="1">
          <mxGeometry x="-30" y="40" width="120" height="60" as="geometry" />
        </mxCell>
        <mxCell id="431lKpLGKha_jWjGA7hC-7" value="" style="endArrow=classic;html=1;rounded=0;exitX=1;exitY=0.5;exitDx=0;exitDy=0;" edge="1" parent="1" source="431lKpLGKha_jWjGA7hC-8">
          <mxGeometry width="50" height="50" relative="1" as="geometry">
            <mxPoint x="580" y="410" as="sourcePoint" />
            <mxPoint x="260" y="70" as="targetPoint" />
          </mxGeometry>
        </mxCell>
        <mxCell id="431lKpLGKha_jWjGA7hC-15" style="edgeStyle=orthogonalEdgeStyle;rounded=0;orthogonalLoop=1;jettySize=auto;html=1;exitX=1;exitY=0.5;exitDx=0;exitDy=0;" edge="1" parent="1" source="431lKpLGKha_jWjGA7hC-9" target="431lKpLGKha_jWjGA7hC-3">
          <mxGeometry relative="1" as="geometry" />
        </mxCell>
        <mxCell id="431lKpLGKha_jWjGA7hC-9" value="Kinesis Firehose" style="rounded=0;whiteSpace=wrap;html=1;fillColor=#97D077;" vertex="1" parent="1">
          <mxGeometry x="330" y="40" width="120" height="60" as="geometry" />
        </mxCell>
        <mxCell id="431lKpLGKha_jWjGA7hC-10" value="" style="endArrow=classic;html=1;rounded=0;exitX=1;exitY=0.5;exitDx=0;exitDy=0;" edge="1" parent="1" source="431lKpLGKha_jWjGA7hC-6" target="431lKpLGKha_jWjGA7hC-8">
          <mxGeometry width="50" height="50" relative="1" as="geometry">
            <mxPoint x="90" y="70" as="sourcePoint" />
            <mxPoint x="260" y="70" as="targetPoint" />
          </mxGeometry>
        </mxCell>
        <mxCell id="431lKpLGKha_jWjGA7hC-8" value="Kinesis data stream" style="rounded=0;whiteSpace=wrap;html=1;fillColor=#97D077;" vertex="1" parent="1">
          <mxGeometry x="160" y="40" width="120" height="60" as="geometry" />
        </mxCell>
        <mxCell id="431lKpLGKha_jWjGA7hC-11" value="" style="endArrow=classic;html=1;rounded=0;exitX=1;exitY=0.5;exitDx=0;exitDy=0;entryX=0;entryY=0.5;entryDx=0;entryDy=0;" edge="1" parent="1" source="431lKpLGKha_jWjGA7hC-8" target="431lKpLGKha_jWjGA7hC-9">
          <mxGeometry width="50" height="50" relative="1" as="geometry">
            <mxPoint x="580" y="410" as="sourcePoint" />
            <mxPoint x="630" y="360" as="targetPoint" />
          </mxGeometry>
        </mxCell>
        <mxCell id="431lKpLGKha_jWjGA7hC-12" value="lambda function - streaming data processor" style="rounded=0;whiteSpace=wrap;html=1;fillColor=#97D077;" vertex="1" parent="1">
          <mxGeometry x="330" y="-60" width="120" height="60" as="geometry" />
        </mxCell>
        <mxCell id="431lKpLGKha_jWjGA7hC-13" value="" style="endArrow=classic;html=1;rounded=0;exitX=0.5;exitY=1;exitDx=0;exitDy=0;" edge="1" parent="1" source="431lKpLGKha_jWjGA7hC-12" target="431lKpLGKha_jWjGA7hC-9">
          <mxGeometry width="50" height="50" relative="1" as="geometry">
            <mxPoint x="445" y="69.5" as="sourcePoint" />
            <mxPoint x="495" y="69.5" as="targetPoint" />
          </mxGeometry>
        </mxCell>
        <mxCell id="431lKpLGKha_jWjGA7hC-14" value="" style="endArrow=classic;html=1;rounded=0;exitX=0.75;exitY=0;exitDx=0;exitDy=0;entryX=0.75;entryY=1;entryDx=0;entryDy=0;" edge="1" parent="1" source="431lKpLGKha_jWjGA7hC-9" target="431lKpLGKha_jWjGA7hC-12">
          <mxGeometry width="50" height="50" relative="1" as="geometry">
            <mxPoint x="420" y="30" as="sourcePoint" />
            <mxPoint x="420" y="70" as="targetPoint" />
          </mxGeometry>
        </mxCell>
        <mxCell id="431lKpLGKha_jWjGA7hC-16" value="" style="endArrow=classic;html=1;rounded=0;exitX=0.5;exitY=1;exitDx=0;exitDy=0;entryX=0.386;entryY=0.04;entryDx=0;entryDy=0;entryPerimeter=0;" edge="1" parent="1" source="431lKpLGKha_jWjGA7hC-3" target="431lKpLGKha_jWjGA7hC-18">
          <mxGeometry width="50" height="50" relative="1" as="geometry">
            <mxPoint x="580" y="270" as="sourcePoint" />
            <mxPoint x="470" y="270" as="targetPoint" />
          </mxGeometry>
        </mxCell>
        <mxCell id="431lKpLGKha_jWjGA7hC-18" value="VPC - 私网" style="rounded=0;whiteSpace=wrap;html=1;fillColor=#97D077;" vertex="1" parent="1">
          <mxGeometry x="130" y="350" width="880" height="100" as="geometry" />
        </mxCell>
        <mxCell id="431lKpLGKha_jWjGA7hC-17" value="RDS - PostgreSQL- batch" style="rounded=0;whiteSpace=wrap;html=1;fillColor=#FFE599;" vertex="1" parent="1">
          <mxGeometry x="210" y="360" width="120" height="60" as="geometry" />
        </mxCell>
        <mxCell id="431lKpLGKha_jWjGA7hC-19" value="VPC - 公网" style="rounded=0;whiteSpace=wrap;html=1;fillColor=#97D077;" vertex="1" parent="1">
          <mxGeometry x="130" y="450" width="880" height="100" as="geometry" />
        </mxCell>
        <mxCell id="431lKpLGKha_jWjGA7hC-22" style="edgeStyle=orthogonalEdgeStyle;rounded=0;orthogonalLoop=1;jettySize=auto;html=1;exitX=0.5;exitY=0;exitDx=0;exitDy=0;entryX=0.5;entryY=1;entryDx=0;entryDy=0;" edge="1" parent="1" source="431lKpLGKha_jWjGA7hC-20" target="431lKpLGKha_jWjGA7hC-17">
          <mxGeometry relative="1" as="geometry" />
        </mxCell>
        <mxCell id="431lKpLGKha_jWjGA7hC-20" value="EC2 - 跳板机" style="rounded=0;whiteSpace=wrap;html=1;fillColor=#FFE599;" vertex="1" parent="1">
          <mxGeometry x="210" y="480" width="120" height="50" as="geometry" />
        </mxCell>
        <mxCell id="431lKpLGKha_jWjGA7hC-21" value="" style="endArrow=classic;html=1;rounded=0;entryX=0.5;entryY=1;entryDx=0;entryDy=0;exitX=1;exitY=0.5;exitDx=0;exitDy=0;" edge="1" parent="1" source="431lKpLGKha_jWjGA7hC-3" target="431lKpLGKha_jWjGA7hC-24">
          <mxGeometry width="50" height="50" relative="1" as="geometry">
            <mxPoint x="660" y="80" as="sourcePoint" />
            <mxPoint x="750" y="190" as="targetPoint" />
            <Array as="points">
              <mxPoint x="660" y="180" />
            </Array>
          </mxGeometry>
        </mxCell>
        <mxCell id="431lKpLGKha_jWjGA7hC-23" value="DMS" style="rounded=0;whiteSpace=wrap;html=1;" vertex="1" parent="1">
          <mxGeometry x="480" y="240" width="90" height="40" as="geometry" />
        </mxCell>
        <mxCell id="431lKpLGKha_jWjGA7hC-24" value="Glue crawler" style="rounded=0;whiteSpace=wrap;html=1;" vertex="1" parent="1">
          <mxGeometry x="600" y="50" width="120" height="60" as="geometry" />
        </mxCell>
        <mxCell id="431lKpLGKha_jWjGA7hC-25" value="" style="endArrow=classic;html=1;rounded=0;exitX=0.5;exitY=0;exitDx=0;exitDy=0;" edge="1" parent="1" source="431lKpLGKha_jWjGA7hC-24">
          <mxGeometry width="50" height="50" relative="1" as="geometry">
            <mxPoint x="510" y="270" as="sourcePoint" />
            <mxPoint x="660" y="-50" as="targetPoint" />
          </mxGeometry>
        </mxCell>
        <mxCell id="431lKpLGKha_jWjGA7hC-26" value="Glue data catalog" style="rounded=0;whiteSpace=wrap;html=1;" vertex="1" parent="1">
          <mxGeometry x="600" y="-80" width="120" height="60" as="geometry" />
        </mxCell>
        <mxCell id="431lKpLGKha_jWjGA7hC-28" value="RDS - PostgreSQL-streaming delta data" style="rounded=0;whiteSpace=wrap;html=1;fillColor=#FFE599;" vertex="1" parent="1">
          <mxGeometry x="350" y="360" width="120" height="60" as="geometry" />
        </mxCell>
        <mxCell id="431lKpLGKha_jWjGA7hC-30" value="spark glue job&lt;br&gt;pyspark" style="rounded=0;whiteSpace=wrap;html=1;" vertex="1" parent="1">
          <mxGeometry x="1040" y="-90" width="120" height="60" as="geometry" />
        </mxCell>
        <mxCell id="431lKpLGKha_jWjGA7hC-31" value="" style="endArrow=classic;html=1;rounded=0;exitX=0.975;exitY=0.4;exitDx=0;exitDy=0;exitPerimeter=0;" edge="1" parent="1" source="431lKpLGKha_jWjGA7hC-26">
          <mxGeometry width="50" height="50" relative="1" as="geometry">
            <mxPoint x="990" y="-10" as="sourcePoint" />
            <mxPoint x="1040" y="-56" as="targetPoint" />
          </mxGeometry>
        </mxCell>
        <mxCell id="431lKpLGKha_jWjGA7hC-32" value="" style="endArrow=classic;html=1;rounded=0;exitX=0.5;exitY=1;exitDx=0;exitDy=0;" edge="1" parent="1" source="431lKpLGKha_jWjGA7hC-30">
          <mxGeometry width="50" height="50" relative="1" as="geometry">
            <mxPoint x="760" y="220" as="sourcePoint" />
            <mxPoint x="1100" y="70" as="targetPoint" />
          </mxGeometry>
        </mxCell>
        <mxCell id="431lKpLGKha_jWjGA7hC-33" value="其他同学" style="rounded=0;whiteSpace=wrap;html=1;" vertex="1" parent="1">
          <mxGeometry x="1040" y="70" width="120" height="60" as="geometry" />
        </mxCell>
      </root>
    </mxGraphModel>
  </diagram>
</mxfile>
